<mxfile host="app.diagrams.net" modified="2023-04-12T02:31:12.917Z" agent="Mozilla/5.0 (Macintosh; Intel Mac OS X 10_15_7) AppleWebKit/537.36 (KHTML, like Gecko) Chrome/112.0.0.0 Safari/537.36" version="21.1.4" etag="uDRzy3q9Hj1HYqmUUWHd" type="github">
  <diagram name="第 1 页" id="nHUxEQPVu50Cdaj4F56L">
    <mxGraphModel>
      <root>
        <mxCell id="0" />
        <mxCell id="1" parent="0" />
      </root>
    </mxGraphModel>
  </diagram>
</mxfile>
